<svg id="RAKBANK_logo_white" xmlns="http://www.w3.org/2000/svg" width="231.473" height="69.242" viewBox="0 0 231.473 69.242">
  <path id="Path_24" data-name="Path 24" d="M188.688,124.63h-.534a2.343,2.343,0,0,0-1.964,1.809c-3.446,13.594-10.527,23.9-19.073,27.567,7.8-1.051,14.662-6.168,19.279-13.783a40.9,40.9,0,0,1-7.615,15.179,29.289,29.289,0,0,1-12.06,2.619c-8.994,0-17.229-4.187-23.88-11.251a1.378,1.378,0,0,0-.879-.431h-.637a.6.6,0,0,0-.207.121,1.154,1.154,0,0,0-.258.241,35.147,35.147,0,0,0,25.482,17.643,22.88,22.88,0,0,1-16.833-.586,25.05,25.05,0,0,0,4.876,4h0l.379.224h0l.345.19h0l.327.172h.086l.327.172h.1l.327.155h.121l.31.155h.1l.345.138h.086a14.315,14.315,0,0,0,1.516.534h.414a.6.6,0,0,0,.19,0h.241a.861.861,0,0,0,.224,0H163.9c9.51,0,17.867-8.063,22.6-20.193h0a63.542,63.542,0,0,0,4.083-21.226,2.552,2.552,0,0,1,0-.362v-1.878A2.464,2.464,0,0,0,188.688,124.63Z" transform="translate(-140.843 -118.343)" fill="#fff"/>
  <path id="Path_25" data-name="Path 25" d="M140.85,137.724a1.154,1.154,0,0,1,.258-.241,1.309,1.309,0,0,1,1.723.172c6.6,7.064,14.886,11.251,23.88,11.251a31.34,31.34,0,0,0,19.831-7.443,40.936,40.936,0,0,1-7.891,13.025,31.339,31.339,0,0,1-8.356,1.137C158.027,155.625,147.208,148.51,140.85,137.724Z" transform="translate(-140.85 -109.229)" fill="#fdc506"/>
  <path id="Path_26" data-name="Path 26" d="M190.669,127.464v-.4h0a2.584,2.584,0,0,0-.569-1.723h0l-.276-.276h-.086l-.258-.172a.672.672,0,0,0-.189-.1h-.172l-.413-.1h-.655a2.377,2.377,0,0,0-1.844,1.723c-3.446,13.594-11.647,23.4-19.073,27.567,7.8-1.051,14.662-6.168,19.279-13.783a38.886,38.886,0,0,1-11.2,18.952,25.378,25.378,0,0,1-8.821,1.585c-9.769,0-18.521-5.582-24.379-14.386a1.24,1.24,0,0,0-.9.258,1.153,1.153,0,0,0-.258.241,35.165,35.165,0,0,0,25.465,17.643,22.811,22.811,0,0,1-7.65,1.327,23.052,23.052,0,0,1-9.166-1.912c.327.345.672.672,1,1h0a1.48,1.48,0,0,0,.241.224l.465.431.258.207.534.465h0a24.533,24.533,0,0,0,2.136,1.533l.207.121.534.327.31.172.517.276.362.19.482.224.4.19.482.19.413.172.465.155.448.155.448.138.482.121.431.121.517.1h.414l.551.086H163.9a20.3,20.3,0,0,0,14.714-7.167h0c.31-.327.6-.672.9-1l.155-.19q.414-.482.827-1.034a2.531,2.531,0,0,0,.172-.224c.276-.345.534-.706.793-1.068l.172-.258c.258-.362.5-.724.741-1.1l.19-.293c.241-.379.465-.758.689-1.137l.207-.327.637-1.172a3.648,3.648,0,0,0,.19-.362l.62-1.223c0-.121.121-.241.172-.379.207-.413.4-.827.586-1.258l.1-.241h0a61.386,61.386,0,0,0,4.738-21.45h0V129.29A6.515,6.515,0,0,0,190.669,127.464Z" transform="translate(-140.843 -118.3)" fill="#fff"/>
  <path id="Path_27" data-name="Path 27" d="M145.86,122.737s29.789,1.723,17.229,33.321C163.037,156.092,209.539,111.727,145.86,122.737Z" transform="translate(-137.228 -120.981)" fill="#fff"/>
  <path id="Path_28" data-name="Path 28" d="M180.086,135.909h7.495c1.413,0,3.084.534,3.084,2.653a2.584,2.584,0,0,1-2.774,2.722h-7.719v-5.375Zm-5.806,17.229h5.806v-7.77h7.236c1.723,0,3.084.741,3.084,3.739a7.873,7.873,0,0,0,.569,4.1h6.34a7.857,7.857,0,0,1-1.1-4.635c0-2.1-.4-5.341-2.929-5.72h0a4.91,4.91,0,0,0,3.446-5.169c0-2.205-1-5.823-6.892-5.823H174.332v21.381Z" transform="translate(-116.683 -113.116)" fill="#fff" fill-rule="evenodd"/>
  <path id="Path_29" data-name="Path 29" d="M203.454,144.934h-6.7l3.342-8.477Zm3.291,8.287h6.271l-9.407-21.381H196.6l-9.407,21.381h6.254l1.723-4.393H205l1.723,4.393Z" transform="translate(-107.35 -113.131)" fill="#fff" fill-rule="evenodd"/>
  <path id="Path_30" data-name="Path 30" d="M67.6,20.033V10.85H61.79V32.214H67.6v-6.34l3.394-2.912,7.271,9.252h7.856L75.539,19.43l9.821-8.58h-7.8L67.6,20.033Z" transform="translate(44.669 7.877)" fill="#fff"/>
  <path id="Path_31" data-name="Path 31" d="M224.223,144.026h7.96c2.033,0,3.084.9,3.084,2.584a2.291,2.291,0,0,1-2.481,2.516h-8.615v-5.169Zm-5.823,9.166h15.248c6.478,0,7.788-3.6,7.788-6.461a5,5,0,0,0-3.79-5.169h0a4.376,4.376,0,0,0,2.843-4.29c0-3.963-2.912-5.393-6.03-5.393H218.4v21.312Zm5.823-17.488h7.271c2.412,0,3,.965,3,2.309a2.016,2.016,0,0,1-2.188,2.309h-8.08Z" transform="translate(-84.788 -113.102)" fill="#fff" fill-rule="evenodd"/>
  <path id="Path_32" data-name="Path 32" d="M247.1,144.934h-6.7l3.342-8.477Zm3.291,8.287h6.271l-9.407-21.381h-7.012l-9.407,21.381h6.254l1.723-4.393h9.838l1.723,4.393Z" transform="translate(-75.795 -113.131)" fill="#fff" fill-rule="evenodd"/>
  <path id="Path_33" data-name="Path 33" d="M123.479,25.753h-.052l-11.251-14.9H105.44V32.214h5.634v-14.9h.052l11.664,14.9H129.1V10.85h-5.617v14.9Z" transform="translate(76.224 7.877)" fill="#fff"/>
  <path id="Path_34" data-name="Path 34" d="M126.036,20.033V10.85H120.23V32.214h5.806v-6.34l3.377-2.912,7.288,9.252h7.856L133.979,19.43l9.821-8.58h-7.8l-9.958,9.183Z" transform="translate(86.916 7.877)" fill="#fff"/>
  <path id="Path_35" data-name="Path 35" d="M202.172,161.193a.084.084,0,0,1-.086.086h-.121l-.138.086a1.378,1.378,0,0,1-.637-.293v-.241a2.147,2.147,0,0,1,0-.258.483.483,0,0,0,.258-.293l.4-.1s0,.121.224.19v.155h.1l1.017-.482a1.553,1.553,0,0,1,.362-.276.4.4,0,0,0,.241-.224l1.034-.844.413-.413a2.74,2.74,0,0,0,.293-.31.172.172,0,0,0,.1-.19l.172-.293a.344.344,0,0,1,0-.138.155.155,0,0,0-.086-.19,3.116,3.116,0,0,0-.655-.379,2.48,2.48,0,0,1-.5-.19,1.155,1.155,0,0,0-.534-.1l-1.051-.345-1.568-.431a1.155,1.155,0,0,1-.31-.138l-.62-.258-.6-.465a1.912,1.912,0,0,1-.31-.81v-.655l.155-.448.172-.31.121-.155a.344.344,0,0,0,.121-.1v-.086l1.327-1.24a.241.241,0,0,0,.138-.155l.379-.345s0-.086.19-.138h.172l.482-.379a.189.189,0,0,1,0-.086h.258l.258-.189h0a2.291,2.291,0,0,0,.637-.31,10.582,10.582,0,0,1,1.723-.586h.586a.4.4,0,0,1,.345,0h.569c.224,0,.465.207.672.569l-.207.62h-.138a.913.913,0,0,1-.207.293h-.172L207,150.2h0a.31.31,0,0,0-.258-.362.155.155,0,0,1-.155,0l-.155-.1a1.223,1.223,0,0,0-.448,0h-.258l-.689.19-.431.241a.861.861,0,0,0-.569.362l-.379.1-.431.345-1.051.724v.1a3.773,3.773,0,0,0-1,1.137l-.19.138a.587.587,0,0,0,0,.155l-.155.207-.1.534.4.586a.587.587,0,0,1,.1.1.413.413,0,0,0,.207.258l.172.121.913.258a.776.776,0,0,0,.414.172h.448l.948.258,1.034.4h.31l.31.121,1.051.517a1.416,1.416,0,0,1,.276.482.724.724,0,0,1,0,.31c0,.155-.172.431-.517.81a.586.586,0,0,1-.258.31,3.033,3.033,0,0,0-.948.706,5.809,5.809,0,0,0-.827.655,3.169,3.169,0,0,1-.861.62l-.689.4-.276.19-.362.1a.293.293,0,0,0-.4-.155Z" transform="translate(-98.401 -100.858)" fill="#fff"/>
  <path id="Path_36" data-name="Path 36" d="M205.143,157.476h0l.793-1.723a4.369,4.369,0,0,0,.241-.448l.121-.293v-.1h0a.775.775,0,0,0,.189-.62v-.121h0l.086-.19v-.241l.31-.258h.431l.258.1.19.534h0v.155l-.1.121-.276.465-.345.517h-.1a2.287,2.287,0,0,1-.155.4l-.207.31a.758.758,0,0,0-.172.327,9.011,9.011,0,0,0-.81,1.861l-.1.431-.327.948v.741l-.172.241h-.172l-.31.121a.207.207,0,0,1-.172-.155l-.19-.138a.379.379,0,0,1,0-.155,1.44,1.44,0,0,1,.1-.62l.327-.965a1.722,1.722,0,0,1,.138-.31.432.432,0,0,1,0-.121h0l.224-.724a.112.112,0,0,1,.207-.086Zm3.446-7.15v.172l-.517.431-.1.121h-.155l-.637-.465-.327-.482v-.345l.293-.172.086-.155h.345l.655.224.327.6Z" transform="translate(-95.1 -100.415)" fill="#fff"/>
  <path id="Path_37" data-name="Path 37" d="M215.9,160.244h0l-.448-.121v-.138l-.086-.6.121-1.137v-.138l.121-.207V156.23l.155-.276-.086-1.034a.88.88,0,0,0,0-.293,1.327,1.327,0,0,0-.258-.62l-.81.569h0a1.569,1.569,0,0,0-.414.345l-.276.465-.9.741h-.086l-.448.431a9.4,9.4,0,0,0-.965,1.189,7.7,7.7,0,0,0-.638.517h-.138l-.551-.172-.155-.431.345-.775.241-1.154h0a1.31,1.31,0,0,0,.086-.327v-.569a2.6,2.6,0,0,0,.1-.879.121.121,0,0,0-.138,0l-.293.224v.138h0l-.121.1h0l-1.017,1.12-.19.31a.1.1,0,0,1-.1,0l-.258.241-.086.155-.345.362-.086.172-.844,1.068a.724.724,0,0,0-.5.5l-.258.086-.431-.241-.138-.276a.431.431,0,0,1,.241-.431,2.085,2.085,0,0,1,.086-.241l.741-1.723.6-1.723a4.446,4.446,0,0,0,.379-1.551l.121-.121h.207a4.066,4.066,0,0,1,.741.1.31.31,0,0,1,.138.1v.517a.276.276,0,0,0-.241.224l-.569,1.189a.172.172,0,0,1,0,.1h0l-.1.241v.224l-.121.241v.345l.5-.551.431-.4a.224.224,0,0,1,.121,0l1.275-1.378a4.322,4.322,0,0,0,.655-.689l.189-.224.155-.121.465-.121.431.207a2.576,2.576,0,0,1,0,.345.379.379,0,0,1-.086.241.432.432,0,0,1,.086.138l-.31,1.5a3.445,3.445,0,0,0-.258.879l-.1.879h.19l1.309-1.292h0l.155-.138,1.585-1.62h0l.637-.551.62-.121.138.121a.138.138,0,0,0,.121,0l.241.431.155,1.5-.086.224h0l-.224,2.55-.1.1V159.5l-.138.207.1.155v.121Z" transform="translate(-93.746 -98.6)" fill="#fff"/>
  <path id="Path_38" data-name="Path 38" d="M213.73,155.069h0a.621.621,0,0,0,0-.19,3.7,3.7,0,0,1,.345-.827h.327a.207.207,0,0,0,.207-.086l.637-.81a.655.655,0,0,1,.258-.362l.379-.276a.757.757,0,0,0,.121-.138,2.153,2.153,0,0,1,.448-.414l.362-.138a.379.379,0,0,0,.189,0h.861l.5.19.327.207a.379.379,0,0,1,.172.31v.379l-.121.844a2.635,2.635,0,0,1-.379,1.12.466.466,0,0,0-.138.19l-.224.31-.465.586-1,1.1-.121.121-.551.569-.19.138a2.706,2.706,0,0,1-.861.724l-.465.482-.155.138-.1.086h0a.465.465,0,0,1-.207,0h-.258a2.9,2.9,0,0,1-.1.517h0v.224l-.189,1.1a.207.207,0,0,1,0,.138h0v.121l-.138.724-.121.948-.1.534a.4.4,0,0,1,0,.276v.448h0l-.19.241-.19.155h-.6v-.482l.138-.465a1.034,1.034,0,0,0,0-.413v-.93a.8.8,0,0,0,0-.224h0l.293-1.981.19-.879v-.569l.121-.379a1.1,1.1,0,0,0,.121-.465h0l.276-.982a2.171,2.171,0,0,0,.31-.948h0l.121-.586Zm4.5-1.447a2.462,2.462,0,0,0,0-.741v-.362l-.258-.241h-.31l-.465.121-.482.379-.121.19s0,.1-.138.138l-.327.345-.1.172-.19.155-.276.62a1.959,1.959,0,0,1-.258.293l-.534,1.275v.1l-.431,1.154v.155h.327l.276.207.517-.293.569-.517v-.1l1.482-1.723a2.36,2.36,0,0,1,.293-.4.172.172,0,0,0,0-.121l.293-.672Z" transform="translate(-89.422 -98.68)" fill="#fff"/>
  <path id="Path_39" data-name="Path 39" d="M216.35,158.551l.1-.586v-.1l.121-.431c.1-.293.172-.465.172-.5.086-.379.155-.586.155-.637,0-.775.086-1.189.276-1.189h.086l.551-2.188v-.172l.207-.827.172-.431.293-1a1.343,1.343,0,0,0,.224-.586c0-.086.1-.362.224-.81a1.5,1.5,0,0,1,.345-.706,4.169,4.169,0,0,0,.414-.086,2.048,2.048,0,0,0,.4.224l-.379.948-.4,1.723-.241.586a.932.932,0,0,0-.1.276c-.1.379-.172.586-.172.62-.19.775-.327,1.275-.379,1.551v.379l-.241.689-.121.345-.121.4-.086.258-.155.517-.121.293a.708.708,0,0,0,0,.293.225.225,0,0,0,0,.1,2.006,2.006,0,0,0-.1.276l-.1.948a2.154,2.154,0,0,0,0,.448v.569a.844.844,0,0,0,0,.414.672.672,0,0,1,0,.258.121.121,0,0,1,0,.086v.362h0a.448.448,0,0,1,0,.258.552.552,0,0,1-.293.345l-.31.672-.241.172h-.276l-.172-.155a1.533,1.533,0,0,1-.224-.31v-.327a.327.327,0,0,1,.121-.19.569.569,0,0,0,.1-.327,1.1,1.1,0,0,0,0-.379v-.6a.811.811,0,0,0,0-.258.483.483,0,0,1,.121-.414.257.257,0,0,1,0-.1v-.224A3.1,3.1,0,0,0,216.35,158.551Z" transform="translate(-86.632 -101.232)" fill="#fff"/>
  <path id="Path_40" data-name="Path 40" d="M217.862,163.458c.1-.241.258-.6.448-1.085h0l.138-.4.121-.138h0l.121-.138c.241-.431.482-.81.706-1.137a.948.948,0,0,1,.172-.19l.086-.138v-.086l.31-.482.241-.172a.948.948,0,0,1,.327-.31,1.033,1.033,0,0,0,.31-.31l.4-.345a1.9,1.9,0,0,0,.172-1.017h0a.515.515,0,0,0-.19.121l-.224.086-.19.155a5.031,5.031,0,0,1-1.723.9h-.327a1.93,1.93,0,0,1-.861-.6l-.31-.534a.4.4,0,0,0,0-.155h0v-.551a.569.569,0,0,1,0-.413,4.91,4.91,0,0,0,.1-1.034l.121-.448.1-.276.482-1.24.138-.293v-.6l.241-.5.224-.1a.362.362,0,0,1,.534.138.463.463,0,0,1,0,.19v.121l-.258.327a4.376,4.376,0,0,1-.19.517l-.551,1.637-.241,1.017v1.24l.482.551a1.5,1.5,0,0,0,.5.155.948.948,0,0,0,.327-.138l.241-.086a.966.966,0,0,0,.258-.172,2.257,2.257,0,0,0,.551-.258.827.827,0,0,0,.431-.327h0a3.224,3.224,0,0,0,.465-.534l.1-.293h0v-.121l.379-2.119.1-.4v-.6a.258.258,0,0,0,0-.1l.1-.241a1.6,1.6,0,0,0,.172-.293l.345-.172.414.19.1.138v.172a3.139,3.139,0,0,1-.138.655,1.982,1.982,0,0,0-.121.689,8.786,8.786,0,0,1-.276,1.464,2.853,2.853,0,0,0-.1.276,7.993,7.993,0,0,1-.276,1.172l-.1.293v.258l-.086.155a.189.189,0,0,1,0,.172c0,.086,0,.155,0,.172l.241-.1,1.085-.551.482-.121a.93.93,0,0,1,.62,0h.345c.155,0,0,0,0,.086a.206.206,0,0,1,0,.155l-.655.155a12.455,12.455,0,0,1-1.464.5,3.015,3.015,0,0,0-.534.482l-.155.706a.706.706,0,0,1,0,.172,1.418,1.418,0,0,0,0,.19v.775l-.224,1-.207.534v.241a.309.309,0,0,1,0,.086h0l-.138.741v.258a2.272,2.272,0,0,0-.258.672l-.189.517-.1.345-.1.258-.138.207v.207l-.121.121-.19.4v.138a.79.79,0,0,0,0,.138l-.155.276a1.544,1.544,0,0,1-.1.241l-.224.413-.172.207a1.585,1.585,0,0,1-.224.31l-.207.121-.241.1h-.655l-.1-.086a.637.637,0,0,0-.207-.121l-.276-.482-.086-.207V165.7a.708.708,0,0,1,0-.207v-.345a7.057,7.057,0,0,1,.172-.741,6.547,6.547,0,0,1,.276-.62.879.879,0,0,1-.4-.327Zm.465.655-.1.413c-.086,0-.121.155-.086.31l-.207.655a3.773,3.773,0,0,0,0,.689,1.172,1.172,0,0,0,0,.207,1.274,1.274,0,0,1,0,.207v.224h0v.1l.224.207.31-.19v-.121l.121-.207v-.1l.379-.637.138-.431.345-.62c.086-.224.155-.448.258-.655l.121-.517.293-.913v-.172h0l.1-.431v-.345l.1-.224.1-.465a1.014,1.014,0,0,1,0-.19l.19-.741.138-.431v-.293l-.362.1-.362.414-.81,1.241h-.1v.172a.155.155,0,0,0,0,.1v.224l-.1.276-.086.19-.138.258v.155a4.675,4.675,0,0,1-.172.62,1.068,1.068,0,0,1-.276.465v.138Z" transform="translate(-85.405 -98.592)" fill="#fff"/>
  <path id="Path_41" data-name="Path 41" d="M228.053,159.275a1.519,1.519,0,0,1-.362.155.465.465,0,0,1-.379-.4.861.861,0,0,0,0-.121,1.207,1.207,0,0,0,0-.362.878.878,0,0,1,0-.362,4.395,4.395,0,0,1-.155-.689,1.952,1.952,0,0,0-.19-.655v-.1h-.155l-.431-1.172-.258-.793a1.137,1.137,0,0,1-.155-.724l-.172-.637a2.6,2.6,0,0,1-.1-.81v-.741a.448.448,0,0,0,.1-.258v-.861a1.722,1.722,0,0,1,.241-.4.151.151,0,0,0,.138-.155c0-.069.19-.224.293-.241l.241-.293h.155l.517-.31a4.1,4.1,0,0,0,.6-.207,1.862,1.862,0,0,1,.672-.155,1.481,1.481,0,0,1,.6-.19l.517-.1a1.068,1.068,0,0,0,.414-.086h.465a.31.31,0,0,0,.189,0h.586a1.723,1.723,0,0,1,.569.086.362.362,0,0,0,.31.207l.414.534a1.067,1.067,0,0,1,0,.224,3.826,3.826,0,0,1-.448,1.292s-.138,0-.155.121v.172s-.138.086-.138.121l-.948,1a.913.913,0,0,1-.224.276,1.893,1.893,0,0,1-.413.431,4.636,4.636,0,0,0-.758.689h-.1l-.138.276a.569.569,0,0,0-.379.258.43.43,0,0,1,0,.138h2.309a.62.62,0,0,0,.258,0,5.56,5.56,0,0,0,1.051.138,5.168,5.168,0,0,1,1.1.138h.241a.929.929,0,0,0,.258,0l.241.207.207.379.121.569v.172a1.5,1.5,0,0,1-.31.861l-.551.775a1.172,1.172,0,0,0-.569.465l-.724.482-.448.207a2.119,2.119,0,0,1-.586.379,1.9,1.9,0,0,0-.569.448,3.445,3.445,0,0,0-.965.362l-.293.121a.431.431,0,0,1-.207,0h-.138l-.517.172h-.276a1.551,1.551,0,0,1-.775.31l-.861.138h0l-1.464.293-.138-.086-.431-.121-.086-.551.258-.327a.776.776,0,0,1,.293,0h.448a7.187,7.187,0,0,0,.758,0l.482-.19h.207l.172-.138,1.62-.431.293-.19.827-.293.758-.362a3.444,3.444,0,0,0,.724-.448,3.958,3.958,0,0,0,.672-.4l.689-.637h.155a.529.529,0,0,0,0-.138l.31-.31a.913.913,0,0,1,.121-.345.724.724,0,0,0,.086-.345l-.224-.293a1.085,1.085,0,0,0-.81-.207,1.533,1.533,0,0,0-.741-.121,3.739,3.739,0,0,1-.758-.1h-.672a4.652,4.652,0,0,1-1,.138,4.448,4.448,0,0,1-.655,0,1.018,1.018,0,0,1-.362.1.327.327,0,0,0-.31.138h0a2.981,2.981,0,0,0-.1,1.085h0c0,.086,0,.138-.1.19s.086.207.241.327v.155h-.121l.1.258h0l.31.672v.362a.259.259,0,0,0-.155.172h-.138a.107.107,0,0,1-.086.1l-.293.138Zm1.533-6.719a1.76,1.76,0,0,1,.31-.19c.155-.069.138-.172.31-.362a1.223,1.223,0,0,0,.276-.379s0-.086.207-.19a1.033,1.033,0,0,0,.224-.189l.741-.948v-.569a.689.689,0,0,0-.5-.276h-.672a10.785,10.785,0,0,0-2.343.534l-.5.431-.517.207-.155.207v.138a4.106,4.106,0,0,0-.293.362v.224l-.19.741v.345a.19.19,0,0,0,0,.155.224.224,0,0,1,0,.121c0,.224,0,.31,0,.241l.121.551v.31a.31.31,0,0,0,.1.224l.138.448v.4h0l.241-1.533h0l.155-1.5.362-.586.431-.121a.664.664,0,0,1,.62.276c.069.138.1,0,.121,0s.138.121.138.155a.708.708,0,0,0-.086.155l-.345,1.137.465-.276Z" transform="translate(-80.089 -101.008)" fill="#fff"/>
  <path id="Path_42" data-name="Path 42" d="M236.355,157.1v.138a.276.276,0,0,1-.121.155l-.19.138h-.138c-.172.1-.482.327-.965.689l-.414.224-.637.224a1.809,1.809,0,0,1-.448.207,2.5,2.5,0,0,0-.431.121h-.81l-.724-.31v-.1h-.1l-.379-.362a.879.879,0,0,1-.172-.345.691.691,0,0,0-.121-.224l-.1-.637.1-.982v-.414l.155-.482.62-1.137.207-.465a1.432,1.432,0,0,1,.224-.241l.224-.241a1.17,1.17,0,0,0,.258-.258,1.96,1.96,0,0,1,.241-.276s.086,0,.155-.121l.6-.345.448-.241a.207.207,0,0,0,.155,0l.689-.155a1.309,1.309,0,0,1,1.1.413.81.81,0,0,0,.172.327v.586l-.224.31-.207.31-.224.224s-.1.1-.224.207l-.138.121-.207.155s-.276.207-.758.551l-.1.138a2.412,2.412,0,0,0-.948.672,1.292,1.292,0,0,0-.448.362.309.309,0,0,0-.138,0h-.224l-.431.241v.362a4.342,4.342,0,0,0,.207.879l.1.224a2.743,2.743,0,0,0,.448.448h.569l.4-.1,1.723-.758h.207l.19-.1.448-.293v-.276l.19.1C236.337,156.8,236.458,156.891,236.355,157.1Zm-2.843-3.118.414-.224a1.172,1.172,0,0,0,.414-.465l.276-.327h.121a.636.636,0,0,0,0-.276.412.412,0,0,0,0-.155h-.379l-.327.121-.448.172c-.1.086-.413.379-.93.9a1.934,1.934,0,0,0-.207.293l-.138.258-.155.207-.19.31-.121.207v.241a.534.534,0,0,0,.258-.138h.121l.827-.534A2.19,2.19,0,0,0,233.512,153.979Z" transform="translate(-75.969 -98.813)" fill="#fff"/>
  <path id="Path_43" data-name="Path 43" d="M236.4,160.02a1.143,1.143,0,0,0,0-.155.379.379,0,0,1,0-.207l.1-.517.138-.241.1-.793v-.362l.172-1.258.207-.913v-.1a.844.844,0,0,0-.793.155l-1.016.293a.293.293,0,0,1-.1.1h-.276l-.19.121h-.19l-.724.207h0c-.207-.155-.293-.293-.293-.4V155.7l.19-.4h.121l.517-.258.706-.19h.655c0-.1.138-.138.241-.1h.586a2.9,2.9,0,0,0,.414-.138h.6l.793-2.739.258-.758v-.1a5.046,5.046,0,0,1,.293-1.223h0a1.551,1.551,0,0,0,0-.431v-.6a.551.551,0,0,1,.258-.241l.138-.121h.19l.672.431h0l.1.121v.413l-.121.241-.241.465a1.051,1.051,0,0,0-.121.293v.241l-.1.258a1.38,1.38,0,0,0,0,.258,1.447,1.447,0,0,0-.19.31,2.894,2.894,0,0,1-.172.534,1.344,1.344,0,0,0-.155.551l-.19.362-.172.637v.4a2.131,2.131,0,0,0,0,.276v.138h2.223a.706.706,0,0,0,.276,0h1.051v.1h0l-.19.155h-.655a.224.224,0,0,1-.155,0h-.689l-.482.121-1.844.224a1,1,0,0,0,0,.293v.207a.551.551,0,0,0-.121.345.586.586,0,0,0,0,.19v.586l-.19.586v.534a.761.761,0,0,1,0,.155v.379a3.157,3.157,0,0,0,0,.586h0v.482a1.17,1.17,0,0,1,0,.293v1.154l-.1.121a.4.4,0,0,1-.086.121l-.879.207-.121-.121a.19.19,0,0,0,0-.1h0l-.086-.517C236.279,160.571,236.331,160.3,236.4,160.02Z" transform="translate(-73.843 -101.167)" fill="#fff"/>
  <path id="Path_44" data-name="Path 44" d="M239.867,160.068V159.9a.517.517,0,0,1,0-.19l.086-.534.155-.258v-1.137l.19-1.241.207-.948V155.5a.862.862,0,0,0-.775.155l-1.034.293v.1h-.276l-.207.121h-.224l-.706.207h0c-.207-.172-.293-.293-.293-.413a.1.1,0,0,0,0-.1v-.172l.19-.362a.155.155,0,0,1,.121,0l.517-.258.706-.172h.207l.362-.1a.189.189,0,0,1,.241-.1h.62l.414-.155h.6l.81-2.739.241-.758.086-.1a4.2,4.2,0,0,1,.276-1.223h0v-1.051c.086-.138.172-.224.258-.224l.138-.138h.19l.655.431h0l.121.1a1.723,1.723,0,0,1,0,.414l-.138.241-.241.465a2.1,2.1,0,0,0-.121.293v.241l-.086.258a.947.947,0,0,0,0,.258l-.19.31a2.532,2.532,0,0,1-.172.534,1.724,1.724,0,0,0-.155.551l-.189.362-.172.637v.81h0l.207.1h1a.241.241,0,0,1,.207,0h.81a.552.552,0,0,0,.241,0h1.292v.1h0l-.19.155a2,2,0,0,1-.655,0h-.861l-.482.1L242,154.9a.722.722,0,0,0,0,.293v.207a.723.723,0,0,0-.1.362.961.961,0,0,0,0,.172v.586l-.19.6v.517a1.462,1.462,0,0,1,0,.172v.379a2.223,2.223,0,0,0,0,.569h0v.482a2.577,2.577,0,0,1,0,.31v1.137l-.086.121v.086a.155.155,0,0,1,0,.1l-.879.207s-.086,0-.121-.121a.138.138,0,0,0,0-.086h0l-.1-.5C239.764,160.6,239.833,160.326,239.867,160.068Z" transform="translate(-71.349 -101.232)" fill="#fff"/>
  <path id="Path_45" data-name="Path 45" d="M246.8,157.011v.138a.31.31,0,0,1-.121.155l-.172.121-.138.086-.965.689-.448.207-.6.241-.465.207-.414.121h-.81l-.724-.31-.086-.1h-.1l-.379-.362a.861.861,0,0,1-.155-.345.336.336,0,0,0-.138-.224l-.1-.637.1-.982v-.4l.172-.482.6-1.154.224-.465a2.258,2.258,0,0,1,.207-.258l.241-.224a1.172,1.172,0,0,0,.258-.258.861.861,0,0,1,.241-.276l.138-.121h0l.6-.362.431-.207a.447.447,0,0,0,.172,0l.672-.155a1.344,1.344,0,0,1,1.12.413.947.947,0,0,0,.172.327v.569l-.224.31-.19.327-.241.207s0,.121-.207.207l-.138.138-.207.155-.775.569-.1.121a2.688,2.688,0,0,0-.948.672,1.276,1.276,0,0,0-.448.362.259.259,0,0,0-.138.086h-.207l-.448.224a1.6,1.6,0,0,0,0,.379,2.809,2.809,0,0,0,.207.879.931.931,0,0,0,.1.224,2.741,2.741,0,0,0,.448.448.207.207,0,0,1,.121,0h.482l.413-.1,1.723-.758.19-.1a.413.413,0,0,0,.207-.1l.448-.276v-.138l.086-.121h.19C246.786,156.7,246.821,156.8,246.8,157.011Zm-2.86-3.032.431-.241a1.516,1.516,0,0,0,.413-.465l.258-.327h.121a.706.706,0,0,0,0-.293.189.189,0,0,0,0-.138H244.8l-.345.121-.431.172c-.1,0-.431.379-.93.879a1.724,1.724,0,0,0-.207.293,1.882,1.882,0,0,0-.138.258l-.172.224-.19.31-.121.207v.241a.482.482,0,0,0,.258-.138h.138l.827-.534A3.731,3.731,0,0,1,243.943,153.979Z" transform="translate(-68.465 -98.813)" fill="#fff"/>
  <path id="Path_46" data-name="Path 46" d="M246.722,158.337l-.121.362-.1.224h0a.344.344,0,0,0-.121,0,1.914,1.914,0,0,0,0,.224.671.671,0,0,1-.31,0,.982.982,0,0,1-.379,0h-.1V158.8a.586.586,0,0,0,0-.293v-.138a1.9,1.9,0,0,0-.138-.948l-.1-1.4v-.637l-.138-.655c-.19-.431-.327-.724-.4-.861v-.6a.757.757,0,0,0,0-.172,1.343,1.343,0,0,1,.207-.362l.121-.138.827.207a.606.606,0,0,0,0,.138,2.638,2.638,0,0,0,0,.5.672.672,0,0,1-.086.448,1.155,1.155,0,0,0,0,.4v1l.276,1.085.379-.448c.31-.586.534-.982.655-1.189l.724-1.275.121-.121a2.308,2.308,0,0,1,.31-.482l.241-.258.172-.172.121-.155.4-.362.345-.241a9.642,9.642,0,0,1,1.154-.5h.379a1.317,1.317,0,0,1,.9.224.207.207,0,0,1,0,.121l-.172.207h0l-.224.155h-.258a.827.827,0,0,0-.4.155,1,1,0,0,1-.362.155,1.447,1.447,0,0,0-.655.431h-.1l-.534.62c-.155.155-.241.241-.241.293l-.362.465s-.086,0-.086.121l-.138.19v.172a9.153,9.153,0,0,1-.569.982,6.043,6.043,0,0,0-.569,1.017v.1a.345.345,0,0,0,0,.138l-.4.879v.121Z" transform="translate(-65.696 -99.157)" fill="#fff"/>
</svg>
